<svg id="visual" viewBox="0 0 1550 700" width="1550" height="700" xmlns="http://www.w3.org/2000/svg" xmlns:xlink="http://www.w3.org/1999/xlink" version="1.1"><rect x="0" y="0" width="1550" height="700" fill="#dfdaf1"></rect><path d="M0 261L36.8 263.7C73.7 266.3 147.3 271.7 221.2 289C295 306.3 369 335.7 442.8 335.7C516.7 335.7 590.3 306.3 664.2 301.2C738 296 812 315 885.8 310C959.7 305 1033.3 276 1107.2 277.7C1181 279.3 1255 311.7 1328.8 332.2C1402.7 352.7 1476.3 361.3 1513.2 365.7L1550 370L1550 701L1513.2 701C1476.3 701 1402.7 701 1328.8 701C1255 701 1181 701 1107.2 701C1033.3 701 959.7 701 885.8 701C812 701 738 701 664.2 701C590.3 701 516.7 701 442.8 701C369 701 295 701 221.2 701C147.3 701 73.7 701 36.8 701L0 701Z" fill="#d2cdf2"></path><path d="M0 315L36.8 311.7C73.7 308.3 147.3 301.7 221.2 317.8C295 334 369 373 442.8 391.5C516.7 410 590.3 408 664.2 400.2C738 392.3 812 378.7 885.8 373.2C959.7 367.7 1033.3 370.3 1107.2 368.2C1181 366 1255 359 1328.8 356.7C1402.7 354.3 1476.3 356.7 1513.2 357.8L1550 359L1550 701L1513.2 701C1476.3 701 1402.7 701 1328.8 701C1255 701 1181 701 1107.2 701C1033.3 701 959.7 701 885.8 701C812 701 738 701 664.2 701C590.3 701 516.7 701 442.8 701C369 701 295 701 221.2 701C147.3 701 73.7 701 36.8 701L0 701Z" fill="#bdb5ed"></path><path d="M0 420L36.8 421.2C73.7 422.3 147.3 424.7 221.2 430.8C295 437 369 447 442.8 450.2C516.7 453.3 590.3 449.7 664.2 436.2C738 422.7 812 399.3 885.8 392.8C959.7 386.3 1033.3 396.7 1107.2 408.3C1181 420 1255 433 1328.8 438C1402.7 443 1476.3 440 1513.2 438.5L1550 437L1550 701L1513.2 701C1476.3 701 1402.7 701 1328.8 701C1255 701 1181 701 1107.2 701C1033.3 701 959.7 701 885.8 701C812 701 738 701 664.2 701C590.3 701 516.7 701 442.8 701C369 701 295 701 221.2 701C147.3 701 73.7 701 36.8 701L0 701Z" fill="#a89ee7"></path><path d="M0 513L36.8 516.7C73.7 520.3 147.3 527.7 221.2 524.3C295 521 369 507 442.8 491.2C516.7 475.3 590.3 457.7 664.2 448.2C738 438.7 812 437.3 885.8 451.7C959.7 466 1033.3 496 1107.2 496.2C1181 496.3 1255 466.7 1328.8 451.7C1402.7 436.7 1476.3 436.3 1513.2 436.2L1550 436L1550 701L1513.2 701C1476.3 701 1402.7 701 1328.8 701C1255 701 1181 701 1107.2 701C1033.3 701 959.7 701 885.8 701C812 701 738 701 664.2 701C590.3 701 516.7 701 442.8 701C369 701 295 701 221.2 701C147.3 701 73.7 701 36.8 701L0 701Z" fill="#9286e1"></path><path d="M0 549L36.8 555.8C73.7 562.7 147.3 576.3 221.2 582.8C295 589.3 369 588.7 442.8 582.7C516.7 576.7 590.3 565.3 664.2 565.2C738 565 812 576 885.8 573.7C959.7 571.3 1033.3 555.7 1107.2 554C1181 552.3 1255 564.7 1328.8 563.2C1402.7 561.7 1476.3 546.3 1513.2 538.7L1550 531L1550 701L1513.2 701C1476.3 701 1402.7 701 1328.8 701C1255 701 1181 701 1107.2 701C1033.3 701 959.7 701 885.8 701C812 701 738 701 664.2 701C590.3 701 516.7 701 442.8 701C369 701 295 701 221.2 701C147.3 701 73.7 701 36.8 701L0 701Z" fill="#7d6fda"></path><path d="M0 631L36.8 632.8C73.7 634.7 147.3 638.3 221.2 640.2C295 642 369 642 442.8 636.7C516.7 631.3 590.3 620.7 664.2 620.3C738 620 812 630 885.8 625C959.7 620 1033.3 600 1107.2 602.7C1181 605.3 1255 630.7 1328.8 638.5C1402.7 646.3 1476.3 636.7 1513.2 631.8L1550 627L1550 701L1513.2 701C1476.3 701 1402.7 701 1328.8 701C1255 701 1181 701 1107.2 701C1033.3 701 959.7 701 885.8 701C812 701 738 701 664.2 701C590.3 701 516.7 701 442.8 701C369 701 295 701 221.2 701C147.3 701 73.7 701 36.8 701L0 701Z" fill="#6658d3"></path></svg>